<svg width="467" height="467" viewBox="0 0 467 467" fill="none" xmlns="http://www.w3.org/2000/svg">
<g clip-path="url(#clip0_0_323)">
<mask id="mask0_0_323" style="mask-type:alpha" maskUnits="userSpaceOnUse" x="0" y="-1" width="468" height="468">
<circle cx="233.5" cy="233.497" r="233.5" fill="#C4C4C4"/>
</mask>
<g mask="url(#mask0_0_323)">
<rect x="-0.00244141" y="-0.0170898" width="1264.79" height="1264.79" fill="black"/>
</g>
<g style="mix-blend-mode:soft-light">
<ellipse cx="233.5" cy="233.496" rx="217.58" ry="217.58" fill="url(#paint0_linear_0_323)"/>
</g>
<g style="mix-blend-mode:multiply" opacity="0.7">
<ellipse cx="233.5" cy="233.496" rx="217.58" ry="217.58" fill="url(#paint1_linear_0_323)"/>
</g>
<g opacity="0.9">
<g clip-path="url(#clip1_0_323)">
<path d="M234.307 435.151C344.703 435.151 434.197 345.657 434.197 235.261C434.197 124.864 344.703 35.3705 234.307 35.3705C123.911 35.3705 34.4169 124.864 34.4169 235.261C34.4169 345.657 123.911 435.151 234.307 435.151Z" fill="black"/>
<path fill-rule="evenodd" clip-rule="evenodd" d="M273.083 242.704L331.999 303.427C332.706 304.146 333.27 305.001 333.656 305.944C334.043 306.887 334.245 307.9 334.252 308.924C334.259 309.947 334.07 310.962 333.696 311.911C333.322 312.859 332.771 313.723 332.073 314.451L327.75 318.892C326.536 320.204 324.931 321.061 323.189 321.326C322.04 321.484 320.871 321.366 319.773 320.981C318.675 320.596 317.679 319.954 316.861 319.106L244.917 244.955C243.666 243.668 242.673 242.139 241.997 240.457C241.319 238.774 240.971 236.97 240.971 235.149C240.971 233.327 241.319 231.523 241.997 229.84C242.673 228.157 243.666 226.629 244.917 225.342L316.861 151.191C317.562 150.467 318.395 149.893 319.311 149.502C320.227 149.11 321.21 148.908 322.202 148.908C323.194 148.908 324.176 149.11 325.092 149.502C326.009 149.893 326.841 150.467 327.542 151.191L331.999 155.861C332.701 156.583 333.258 157.441 333.638 158.386C334.018 159.33 334.213 160.342 334.213 161.365C334.213 162.387 334.018 163.4 333.638 164.344C333.258 165.289 332.701 166.147 331.999 166.869L273.083 227.608C271.15 229.615 270.066 232.328 270.066 235.156C270.066 237.984 271.15 240.697 273.083 242.704ZM195.529 227.672L136.636 166.933C135.921 166.214 135.352 165.355 134.962 164.407C134.572 163.459 134.368 162.44 134.362 161.411C134.356 160.381 134.55 159.36 134.93 158.408C135.31 157.456 135.869 156.591 136.576 155.863L140.882 151.407C142.109 150.104 143.715 149.249 145.456 148.973C146.605 148.82 147.773 148.94 148.87 149.325C149.966 149.71 150.963 150.349 151.782 151.193L223.699 225.345C224.949 226.632 225.941 228.161 226.618 229.843C227.295 231.526 227.644 233.33 227.644 235.152C227.644 236.974 227.295 238.777 226.618 240.46C225.941 242.143 224.949 243.671 223.699 244.958L151.782 319.11C151.08 319.834 150.247 320.409 149.33 320.801C148.412 321.192 147.429 321.394 146.436 321.394C145.444 321.394 144.461 321.192 143.543 320.801C142.626 320.409 141.792 319.834 141.09 319.11L136.636 314.517C135.933 313.793 135.376 312.934 134.996 311.988C134.616 311.042 134.42 310.029 134.42 309.005C134.42 307.981 134.616 306.967 134.996 306.022C135.376 305.076 135.933 304.217 136.636 303.493L195.529 242.769C197.461 240.761 198.544 238.048 198.544 235.22C198.544 232.393 197.461 229.68 195.529 227.672Z" fill="white"/>
</g>
</g>
<g style="mix-blend-mode:hard-light" opacity="0.9">
<path d="M233.5 466.998C104.541 466.998 -1.58436e-05 362.457 -1.02066e-05 233.498C-4.56965e-06 104.54 104.542 -0.00172483 233.5 -0.00171919C362.458 -0.00171355 467 104.54 467 233.498C467 362.457 362.458 466.998 233.5 466.998ZM233.5 15.9271C113.339 15.927 15.9288 113.337 15.9288 233.498C15.9288 353.66 113.339 451.07 233.5 451.07C353.661 451.07 451.071 353.66 451.071 233.498C451.071 113.337 353.661 15.9271 233.5 15.9271Z" fill="url(#paint2_radial_0_323)"/>
</g>
<g style="mix-blend-mode:hard-light" opacity="0.7">
<path d="M235.269 35.3767C124.872 35.3767 35.3785 124.871 35.3785 235.267C35.3785 291.459 58.5649 342.235 95.8922 378.551L378.553 95.8904C342.237 58.5631 291.461 35.3767 235.269 35.3767Z" fill="url(#paint3_linear_0_323)"/>
</g>
</g>
<defs>
<linearGradient id="paint0_linear_0_323" x1="394.637" y1="393.961" x2="225.951" y2="239.141" gradientUnits="userSpaceOnUse">
<stop stop-color="#F5F5F5"/>
<stop offset="1" stop-color="#F5F5F5" stop-opacity="0"/>
</linearGradient>
<linearGradient id="paint1_linear_0_323" x1="51.2997" y1="53.9487" x2="382.275" y2="398.966" gradientUnits="userSpaceOnUse">
<stop stop-color="#14151A"/>
<stop offset="0.0989583" stop-color="#2B2F36"/>
<stop offset="0.524632" stop-color="#B4B4B4" stop-opacity="0.536112"/>
<stop offset="1" stop-color="#F5F5F5" stop-opacity="0"/>
</linearGradient>
<radialGradient id="paint2_radial_0_323" cx="0" cy="0" r="1" gradientUnits="userSpaceOnUse" gradientTransform="translate(264.456 202.542) rotate(135) scale(327.717)">
<stop stop-opacity="0"/>
<stop offset="0.405819" stop-color="#333333" stop-opacity="0.613091"/>
<stop offset="1" stop-color="white"/>
</radialGradient>
<linearGradient id="paint3_linear_0_323" x1="94.6379" y1="105.25" x2="251.189" y2="261.801" gradientUnits="userSpaceOnUse">
<stop stop-color="white"/>
<stop offset="1" stop-color="#C4C4C4" stop-opacity="0"/>
</linearGradient>
<clipPath id="clip0_0_323">
<rect width="467" height="467" fill="white"/>
</clipPath>
<clipPath id="clip1_0_323">
<rect width="399.78" height="399.78" fill="white" transform="translate(34.4169 35.3705)"/>
</clipPath>
</defs>
</svg>
